# xmcd
#
# Track frame offsets: 
#        150
#        16523
#        33519
#        57558
#        83822
#        101922
#        117225
#        134159
#        157055
#        174532
#        195471
#        226737
#        245823
#
# Disc length: 3811 seconds
#
# Revision: 0
# Processed by: cddbd v1.5.2PL0 Copyright (c) Steve Scherf et al.
# Submitted via: ExactAudioCopy v0.95b3
#
DISCID=b00ee10d
DTITLE=Wade Bowen - Live at the Blue Light
DYEAR=2006
DGENRE=Country
TTITLE0=Get Away
TTITLE1=Tired of Being Alone
TTITLE2=Try Not to Listen
TTITLE3=Why Can't You Love Me
TTITLE4=Starting Right Now
TTITLE5=Windfall
TTITLE6=Keep Hangin' On
TTITLE7=Mystery of a Woman
TTITLE8=Walkin' Shoes
TTITLE9=Who I Am
TTITLE10=Doug's Song (w/ Seth James)
TTITLE11=Not Finished Yet
TTITLE12=Just for Fun
EXTD=
EXTT0=
EXTT1=
EXTT2=
EXTT3=
EXTT4=
EXTT5=
EXTT6=
EXTT7=
EXTT8=
EXTT9=
EXTT10=
EXTT11=
EXTT12=
PLAYORDER=
